<svg width="27" height="20" viewBox="0 0 27 20" fill="none" xmlns="http://www.w3.org/2000/svg">
        <path d="M10.8211 12.0731C10.3333 13.317 10.2602 15.1219 10.2602 15.8536V16.9756C10.2602 17.6097 9.74798 18.1463 9.08944 18.1463H3.38213C2.74798 18.1463 2.21139 17.6341 2.21139 16.9756V7.75608C2.21139 7.12191 2.72359 6.58534 3.38213 6.58534H8.08944L8.18701 6.70728C8.18701 6.70728 8.28458 6.78044 8.65041 7.04874C9.60164 7.73168 10.7236 8.07314 11.8455 8.09754L8.91871 4.70728H2.33334C1.23578 4.70728 0.333344 5.60971 0.333344 6.70728V17.9756C0.357734 19.0975 1.26017 20 2.35773 20H10.1138C11.2114 20 12.1138 19.0975 12.1138 18V10.3414C11.4065 10.8292 11.1382 11.2926 10.8211 12.0731Z" fill="#FFA800"/>
        <path d="M23.3333 0H16.748C15.6504 0 14.748 0.90244 14.748 2V7.36587C15.309 7.0244 15.9187 6.5122 16.2358 5.70733C16.626 4.7561 16.6016 4.07317 16.5772 3.58537C16.5772 3.4878 16.5772 3.39023 16.5772 3.31707V3C16.5772 2.36585 17.0894 1.82927 17.748 1.82927H22.4553L24.626 4.2927V12.2195C24.626 12.8537 24.1138 13.3902 23.4553 13.3902H17.748C17.1138 13.3902 16.5772 12.8781 16.5772 12.2195V10.6829C16.5529 9.85367 16.4065 9.68293 16.4065 9.68293L16.3577 9.63417C16.2358 9.46343 16.0407 9.2927 15.9675 9.2683C15.6016 9.2439 15.187 9.2683 14.748 9.34147V13.2927C14.748 14.3902 15.6504 15.2927 16.748 15.2927H24.5041C25.6016 15.2927 26.5041 14.3902 26.5041 13.2927V3.68293L23.3333 0Z" fill="#FFA800"/>
        <path d="M12.0407 9.53656C12.9675 8.97559 14.5772 8.39022 16.0407 8.51216C16.4309 8.53656 16.8211 8.99996 16.9187 9.14632C17.0894 9.29266 17.2602 9.63412 17.309 10.6585V12.2195C17.309 12.4634 17.5041 12.6585 17.748 12.6585H23.4797C23.7236 12.6585 23.9187 12.4634 23.9187 12.2195V4.56096L22.1382 2.56094H17.748C17.5041 2.56094 17.309 2.75607 17.309 2.99997V3.31704C17.309 3.39022 17.309 3.48779 17.309 3.56096C17.3333 4.07312 17.3577 4.87802 16.9187 5.97559C16.4553 7.12192 15.3821 8.04876 13.9675 8.51216H13.9431C12.0163 9.14632 9.89431 8.80486 8.23578 7.63412C7.99188 7.46339 7.86994 7.36582 7.79678 7.29266H3.38212C3.13822 7.29266 2.9431 7.48779 2.9431 7.73169V16.9512C2.9431 17.1951 3.13822 17.3902 3.38212 17.3902H9.11384C9.35774 17.3902 9.55284 17.1951 9.55284 16.9512V15.8536C9.55284 15.0975 9.60164 13.1707 10.1626 11.8049C10.5285 10.8049 10.9431 10.1951 12.0407 9.53656Z" fill="#BB7C00"/>
        <path d="M22.4063 5.75H18.5104C18.4126 5.75 18.3333 5.84513 18.3333 5.9625V6.8125C18.3333 6.92987 18.4126 7.025 18.5104 7.025H22.4063C22.5041 7.025 22.5833 6.92987 22.5833 6.8125V5.9625C22.5833 5.84513 22.5041 5.75 22.4063 5.75Z" stroke="white" stroke-width="0.5" stroke-linecap="round" stroke-linejoin="round"/>
        <path d="M22.2292 7.02505V9.78756C22.2292 9.84392 22.2105 9.89796 22.1773 9.93782C22.1441 9.97766 22.0991 10.0001 22.0521 10.0001H18.8646C18.8176 10.0001 18.7726 9.97766 18.7394 9.93782C18.7062 9.89796 18.6875 9.84392 18.6875 9.78756V7.02505" stroke="white" stroke-width="0.5" stroke-linecap="round" stroke-linejoin="round"/>
        <path d="M19.9271 8.08755H20.9896" stroke="white" stroke-width="0.5" stroke-linecap="round" stroke-linejoin="round"/>
        <path d="M8.15628 10.5H4.26041C4.16261 10.5 4.08334 10.5951 4.08334 10.7125V11.5625C4.08334 11.6799 4.16261 11.775 4.26041 11.775H8.15628C8.25408 11.775 8.33334 11.6799 8.33334 11.5625V10.7125C8.33334 10.5951 8.25408 10.5 8.15628 10.5Z" stroke="white" stroke-width="0.5" stroke-linecap="round" stroke-linejoin="round"/>
        <path d="M7.97918 11.7751V14.5376C7.97918 14.5939 7.96052 14.648 7.92732 14.6878C7.89412 14.7277 7.84908 14.7501 7.80211 14.7501H4.61462C4.56765 14.7501 4.52258 14.7277 4.48938 14.6878C4.45618 14.648 4.43752 14.5939 4.43752 14.5376V11.7751" stroke="white" stroke-width="0.5" stroke-linecap="round" stroke-linejoin="round"/>
        <path d="M5.67708 12.8376H6.73961" stroke="white" stroke-width="0.5" stroke-linecap="round" stroke-linejoin="round"/>
</svg>
