<svg width="27" height="20" viewBox="0 0 27 20" fill="" xmlns="http://www.w3.org/2000/svg">
        <path d="M10.4878 12.0732C10 13.3171 9.92683 15.122 9.92683 15.8537V16.9756C9.92683 17.6098 9.41463 18.1463 8.7561 18.1463H3.04878C2.41464 18.1463 1.87805 17.6342 1.87805 16.9756V7.75611C1.87805 7.12197 2.39025 6.58537 3.04878 6.58537H7.7561L7.85367 6.70734C7.85367 6.70734 7.95123 6.78051 8.31707 7.04877C9.2683 7.73171 10.3902 8.07317 11.5122 8.09757L8.58537 4.70731H2C0.90244 4.70731 0 5.60977 0 6.70734V17.9756C0.0243903 19.0976 0.92683 20 2.02439 20H9.7805C10.8781 20 11.7805 19.0976 11.7805 18V10.3415C11.0732 10.8293 10.8049 11.2927 10.4878 12.0732Z" fill="#39BAFF"/>
        <path d="M23 0H16.4146C15.3171 0 14.4146 0.90244 14.4146 2V7.36587C14.9756 7.0244 15.5854 6.5122 15.9024 5.70733C16.2927 4.7561 16.2683 4.07317 16.2439 3.58537C16.2439 3.4878 16.2439 3.39023 16.2439 3.31707V3C16.2439 2.36585 16.7561 1.82927 17.4146 1.82927H22.122L24.2927 4.2927V12.2195C24.2927 12.8537 23.7805 13.3902 23.122 13.3902H17.4146C16.7805 13.3902 16.2439 12.8781 16.2439 12.2195V10.6829C16.2195 9.85367 16.0732 9.68293 16.0732 9.68293L16.0244 9.63417C15.9024 9.46343 15.7073 9.2927 15.6342 9.2683C15.2683 9.2439 14.8537 9.2683 14.4146 9.34147V13.2927C14.4146 14.3902 15.3171 15.2927 16.4146 15.2927H24.1707C25.2683 15.2927 26.1707 14.3902 26.1707 13.2927V3.68293L23 0Z" fill="#39BAFF"/>
        <path d="M11.7073 9.53656C12.6342 8.97559 14.2439 8.39022 15.7073 8.51216C16.0976 8.53656 16.4878 8.99996 16.5854 9.14632C16.7561 9.29266 16.9268 9.63412 16.9756 10.6585V12.2195C16.9756 12.4634 17.1707 12.6585 17.4146 12.6585H23.1464C23.3903 12.6585 23.5854 12.4634 23.5854 12.2195V4.56096L21.8049 2.56094H17.4146C17.1707 2.56094 16.9756 2.75607 16.9756 2.99997V3.31704C16.9756 3.39022 16.9756 3.48779 16.9756 3.56096C17 4.07312 17.0244 4.87802 16.5854 5.97559C16.122 7.12192 15.0488 8.04876 13.6342 8.51216H13.6098C11.6829 9.14632 9.561 8.80486 7.90243 7.63412C7.65853 7.46339 7.5366 7.36582 7.46343 7.29266H3.04879C2.80488 7.29266 2.60976 7.48779 2.60976 7.73169V16.9512C2.60976 17.1951 2.80488 17.3902 3.04879 17.3902H8.7805C9.0244 17.3902 9.21953 17.1951 9.21953 16.9512V15.8536C9.21953 15.0975 9.2683 13.1707 9.82927 11.8049C10.1951 10.8049 10.6098 10.1951 11.7073 9.53656Z" fill="#168ACB"/>
        <path d="M7.7606 14.75H4.19793C4.14543 14.75 4.0951 14.7292 4.05797 14.692C4.02087 14.6549 4 14.6046 4 14.5521V10.1979C4 10.1454 4.02087 10.0951 4.05797 10.058C4.0951 10.0209 4.14543 10 4.19793 10H6.5731L7.95853 11.3854V14.5521C7.95853 14.5781 7.9534 14.6038 7.94347 14.6278C7.93353 14.6518 7.91893 14.6737 7.90057 14.692C7.88217 14.7104 7.86037 14.725 7.83637 14.7349C7.81233 14.7449 7.7866 14.75 7.7606 14.75Z" stroke="white" stroke-width="0.5" stroke-linecap="round" stroke-linejoin="round"/>
        <path d="M6.5731 10V11.3854H7.95873" stroke="white" stroke-width="0.5" stroke-linecap="round" stroke-linejoin="round"/>
        <path d="M5.1877 12.5729H6.77103" stroke="white" stroke-width="0.5" stroke-linecap="round" stroke-linejoin="round"/>
        <path d="M5.1877 13.3646H6.77103" stroke="white" stroke-width="0.5" stroke-linecap="round" stroke-linejoin="round"/>
        <path d="M22.0106 10H18.4479C18.3954 10 18.3451 9.97917 18.308 9.94203C18.2709 9.90493 18.25 9.85457 18.25 9.8021V5.44793C18.25 5.39543 18.2709 5.3451 18.308 5.30797C18.3451 5.27087 18.3954 5.25 18.4479 5.25H20.8231L22.2085 6.63543V9.8021C22.2085 9.82807 22.2034 9.8538 22.1935 9.87783C22.1835 9.90183 22.1689 9.92367 22.1506 9.94203C22.1322 9.9604 22.1104 9.975 22.0864 9.98493C22.0623 9.9949 22.0366 10 22.0106 10Z" stroke="white" stroke-width="0.5" stroke-linecap="round" stroke-linejoin="round"/>
        <path d="M20.8231 5.25V6.63543H22.2087" stroke="white" stroke-width="0.5" stroke-linecap="round" stroke-linejoin="round"/>
        <path d="M19.4377 7.82288H21.021" stroke="white" stroke-width="0.5" stroke-linecap="round" stroke-linejoin="round"/>
        <path d="M19.4377 8.61462H21.021" stroke="white" stroke-width="0.5" stroke-linecap="round" stroke-linejoin="round"/>
</svg>
