<svg width="27" height="20" viewBox="0 0 27 20" fill="none" xmlns="http://www.w3.org/2000/svg">
        <path d="M10.4878 12.0731C10 13.317 9.92683 15.1219 9.92683 15.8536V16.9756C9.92683 17.6097 9.41463 18.1463 8.7561 18.1463H3.04878C2.41464 18.1463 1.87805 17.6341 1.87805 16.9756V7.75608C1.87805 7.12191 2.39025 6.58534 3.04878 6.58534H7.7561L7.85367 6.70728C7.85367 6.70728 7.95123 6.78044 8.31707 7.04874C9.2683 7.73168 10.3902 8.07314 11.5122 8.09754L8.58537 4.70728H2C0.90244 4.70728 0 5.60971 0 6.70728V17.9756C0.0243903 19.0975 0.92683 20 2.02439 20H9.7805C10.8781 20 11.7805 19.0975 11.7805 18V10.3414C11.0732 10.8292 10.8049 11.2926 10.4878 12.0731Z" fill="#1B9A18"/>
        <path d="M23 0H16.4146C15.3171 0 14.4146 0.90244 14.4146 2V7.36587C14.9756 7.0244 15.5854 6.5122 15.9025 5.70733C16.2927 4.7561 16.2683 4.07317 16.2439 3.58537C16.2439 3.4878 16.2439 3.39023 16.2439 3.31707V3C16.2439 2.36585 16.7561 1.82927 17.4146 1.82927H22.122L24.2927 4.2927V12.2195C24.2927 12.8537 23.7805 13.3902 23.122 13.3902H17.4146C16.7805 13.3902 16.2439 12.8781 16.2439 12.2195V10.6829C16.2195 9.85367 16.0732 9.68293 16.0732 9.68293L16.0244 9.63417C15.9025 9.46343 15.7073 9.2927 15.6342 9.2683C15.2683 9.2439 14.8537 9.2683 14.4146 9.34147V13.2927C14.4146 14.3902 15.3171 15.2927 16.4146 15.2927H24.1708C25.2683 15.2927 26.1708 14.3902 26.1708 13.2927V3.68293L23 0Z" fill="#1B9A18"/>
        <path d="M11.7073 9.53656C12.6342 8.97559 14.2439 8.39022 15.7073 8.51216C16.0976 8.53656 16.4878 8.99996 16.5854 9.14632C16.7561 9.29266 16.9268 9.63412 16.9756 10.6585V12.2195C16.9756 12.4634 17.1707 12.6585 17.4146 12.6585H23.1464C23.3903 12.6585 23.5854 12.4634 23.5854 12.2195V4.56096L21.8049 2.56094H17.4146C17.1707 2.56094 16.9756 2.75607 16.9756 2.99997V3.31704C16.9756 3.39022 16.9756 3.48779 16.9756 3.56096C17 4.07312 17.0244 4.87802 16.5854 5.97559C16.122 7.12192 15.0488 8.04876 13.6342 8.51216H13.6098C11.6829 9.14632 9.56095 8.80486 7.90242 7.63412C7.65852 7.46339 7.53658 7.36582 7.46342 7.29266H3.04876C2.80486 7.29266 2.60974 7.48779 2.60974 7.73169V16.9512C2.60974 17.1951 2.80486 17.3902 3.04876 17.3902H8.78048C9.02438 17.3902 9.21948 17.1951 9.21948 16.9512V15.8536C9.21948 15.0975 9.26828 13.1707 9.82925 11.8049C10.1951 10.8049 10.6098 10.1951 11.7073 9.53656Z" fill="#036201"/>
        <path d="M21.9878 7.48078H21.4109C21.3344 7.48078 21.261 7.51118 21.2069 7.56528C21.1528 7.61938 21.1224 7.69275 21.1224 7.76925V8.49042C21.1224 8.56692 21.1528 8.64028 21.2069 8.69438C21.261 8.74848 21.3344 8.77885 21.4109 8.77885H21.6993C21.7758 8.77885 21.8492 8.74848 21.9033 8.69438C21.9574 8.64028 21.9878 8.56692 21.9878 8.49042V7.48078ZM21.9878 7.48078C21.9878 7.25238 21.9426 7.02625 21.8548 6.81541C21.767 6.60458 21.6383 6.41322 21.4762 6.25232C21.3141 6.09142 21.1218 5.96422 20.9103 5.87802C20.6988 5.79182 20.4723 5.74835 20.2439 5.75005C20.0155 5.74835 19.789 5.79182 19.5775 5.87802C19.366 5.96422 19.1737 6.09142 19.0116 6.25232C18.8495 6.41322 18.7208 6.60458 18.633 6.81541C18.5452 7.02625 18.5 7.25238 18.5 7.48078M18.5 7.48078V8.49042C18.5 8.56692 18.5304 8.64028 18.5845 8.69438C18.6386 8.74848 18.712 8.77885 18.7885 8.77885H19.0769C19.1534 8.77885 19.2268 8.74848 19.2809 8.69438C19.335 8.64028 19.3654 8.56692 19.3654 8.49042V7.76925C19.3654 7.69275 19.335 7.61938 19.2809 7.56528C19.2268 7.51118 19.1534 7.48078 19.0769 7.48078H18.5Z" stroke="white" stroke-width="0.5" stroke-linecap="round" stroke-linejoin="round"/>
        <path d="M21.9878 8.49048V8.92318C21.9878 9.07618 21.927 9.22295 21.8188 9.33115C21.7106 9.43931 21.5639 9.50011 21.4109 9.50011H20.375" stroke="white" stroke-width="0.5" stroke-linecap="round" stroke-linejoin="round"/>
        <path d="M7.7378 11.9808H7.16087C7.08437 11.9808 7.011 12.0112 6.9569 12.0653C6.9028 12.1194 6.8724 12.1927 6.8724 12.2692V12.9904C6.8724 13.0669 6.9028 13.1403 6.9569 13.1944C7.011 13.2485 7.08437 13.2788 7.16087 13.2788H7.44933C7.52583 13.2788 7.5992 13.2485 7.6533 13.1944C7.7074 13.1403 7.7378 13.0669 7.7378 12.9904V11.9808ZM7.7378 11.9808C7.7378 11.7524 7.69257 11.5262 7.60477 11.3154C7.51697 11.1046 7.3883 10.9132 7.2262 10.7523C7.0641 10.5914 6.87173 10.4642 6.66023 10.378C6.44873 10.2918 6.22227 10.2483 5.9939 10.25C5.7655 10.2483 5.53903 10.2918 5.32753 10.378C5.11603 10.4642 4.9237 10.5914 4.76157 10.7523C4.59947 10.9132 4.4708 11.1046 4.383 11.3154C4.2952 11.5262 4.25 11.7524 4.25 11.9808M4.25 11.9808V12.9904C4.25 13.0669 4.2804 13.1403 4.3345 13.1944C4.3886 13.2485 4.46197 13.2788 4.53847 13.2788H4.82693C4.90343 13.2788 4.9768 13.2485 5.0309 13.1944C5.085 13.1403 5.1154 13.0669 5.1154 12.9904V12.2692C5.1154 12.1927 5.085 12.1194 5.0309 12.0653C4.9768 12.0112 4.90343 11.9808 4.82693 11.9808H4.25Z" stroke="white" stroke-width="0.5" stroke-linecap="round" stroke-linejoin="round"/>
        <path d="M7.7378 12.9905V13.4232C7.7378 13.5762 7.677 13.7229 7.5688 13.8311C7.46063 13.9393 7.31387 14.0001 7.16087 14.0001H6.125" stroke="white" stroke-width="0.5" stroke-linecap="round" stroke-linejoin="round"/>
</svg>
