<svg width="27" height="20" viewBox="0 0 27 20" fill="none" xmlns="http://www.w3.org/2000/svg">
        <path d="M10.8211 12.0731C10.3333 13.317 10.2602 15.1219 10.2602 15.8536V16.9756C10.2602 17.6097 9.74797 18.1463 9.08943 18.1463H3.38212C2.74797 18.1463 2.21139 17.6341 2.21139 16.9756V7.75608C2.21139 7.12191 2.72358 6.58534 3.38212 6.58534H8.08944L8.187 6.70728C8.187 6.70728 8.28457 6.78044 8.6504 7.04874C9.60164 7.73168 10.7236 8.07314 11.8455 8.09754L8.9187 4.70728H2.33334C1.23578 4.70728 0.333336 5.60971 0.333336 6.70728V17.9756C0.357726 19.0975 1.26017 20 2.35773 20H10.1138C11.2114 20 12.1138 19.0975 12.1138 18V10.3414C11.4065 10.8292 11.1382 11.2926 10.8211 12.0731Z" fill="#762BBC"/>
        <path d="M23.3333 0H16.748C15.6504 0 14.748 0.90244 14.748 2V7.36587C15.309 7.0244 15.9187 6.5122 16.2358 5.70733C16.626 4.7561 16.6016 4.07317 16.5772 3.58537C16.5772 3.4878 16.5772 3.39023 16.5772 3.31707V3C16.5772 2.36585 17.0894 1.82927 17.748 1.82927H22.4553L24.626 4.2927V12.2195C24.626 12.8537 24.1138 13.3902 23.4553 13.3902H17.748C17.1138 13.3902 16.5772 12.8781 16.5772 12.2195V10.6829C16.5529 9.85367 16.4065 9.68293 16.4065 9.68293L16.3577 9.63417C16.2358 9.46343 16.0407 9.2927 15.9675 9.2683C15.6016 9.2439 15.187 9.2683 14.748 9.34147V13.2927C14.748 14.3902 15.6504 15.2927 16.748 15.2927H24.5041C25.6016 15.2927 26.5041 14.3902 26.5041 13.2927V3.68293L23.3333 0Z" fill="#762BBC"/>
        <path d="M12.0407 9.53656C12.9675 8.97559 14.5772 8.39022 16.0407 8.51216C16.4309 8.53656 16.8212 8.99996 16.9187 9.14632C17.0894 9.29266 17.2602 9.63412 17.309 10.6585V12.2195C17.309 12.4634 17.5041 12.6585 17.748 12.6585H23.4797C23.7236 12.6585 23.9187 12.4634 23.9187 12.2195V4.56096L22.1382 2.56094H17.748C17.5041 2.56094 17.309 2.75607 17.309 2.99997V3.31704C17.309 3.39022 17.309 3.48779 17.309 3.56096C17.3333 4.07312 17.3577 4.87802 16.9187 5.97559C16.4553 7.12192 15.3821 8.04876 13.9675 8.51216H13.9431C12.0163 9.14632 9.89433 8.80486 8.23577 7.63412C7.99187 7.46339 7.86993 7.36582 7.79677 7.29266H3.38212C3.13822 7.29266 2.94309 7.48779 2.94309 7.73169V16.9512C2.94309 17.1951 3.13822 17.3902 3.38212 17.3902H9.11383C9.35773 17.3902 9.55287 17.1951 9.55287 16.9512V15.8536C9.55287 15.0975 9.60163 13.1707 10.1626 11.8049C10.5285 10.8049 10.9431 10.1951 12.0407 9.53656Z" fill="#4C0F85"/>
        <path fill-rule="evenodd" clip-rule="evenodd" d="M6.239 12.8938C7.13207 12.8938 7.8949 13.0291 7.8949 13.5695C7.8949 14.1102 7.1369 14.2501 6.239 14.2501C5.34594 14.2501 4.58334 14.115 4.58334 13.5744C4.58334 13.0337 5.3411 12.8938 6.239 12.8938Z" stroke="white" stroke-width="0.5" stroke-linecap="round" stroke-linejoin="round"/>
        <path fill-rule="evenodd" clip-rule="evenodd" d="M6.239 12.1223C5.64993 12.1223 5.17796 11.6501 5.17796 11.061C5.17796 10.4722 5.64993 10 6.239 10C6.82806 10 7.30026 10.4722 7.30026 11.061C7.30026 11.6501 6.82806 12.1223 6.239 12.1223Z" stroke="white" stroke-width="0.5" stroke-linecap="round" stroke-linejoin="round"/>
        <path fill-rule="evenodd" clip-rule="evenodd" d="M20.489 8.3938C21.3821 8.3938 22.1449 8.5291 22.1449 9.06953C22.1449 9.6102 21.3869 9.75007 20.489 9.75007C19.596 9.75007 18.8333 9.61503 18.8333 9.07437C18.8333 8.5337 19.5911 8.3938 20.489 8.3938Z" stroke="white" stroke-width="0.5" stroke-linecap="round" stroke-linejoin="round"/>
        <path fill-rule="evenodd" clip-rule="evenodd" d="M20.489 7.62227C19.8999 7.62227 19.428 7.1501 19.428 6.56103C19.428 5.97217 19.8999 5.5 20.489 5.5C21.0781 5.5 21.5503 5.97217 21.5503 6.56103C21.5503 7.1501 21.0781 7.62227 20.489 7.62227Z" stroke="white" stroke-width="0.5" stroke-linecap="round" stroke-linejoin="round"/>
</svg>
